<svg viewBox="0 0 1024 1024" xmlns="http://www.w3.org/2000/svg"><path d="M769.936 700.944L907.5 563.38l-56.946-56.942c-22.192 43.638-48.74 83.863-78.808 120.96-46.035-45.982-91.367-90.988-136.678-134.832 133.417-141.84 254.13-289.344 346.59-463.725-177.222 98.77-327.164 216.225-471.102 346.743C366.62 245.066 216.678 127.61 39.456 28.84c92.46 174.38 213.17 321.884 346.59 463.726-45.31 43.843-90.642 88.847-136.676 134.83-30.065-37.097-56.616-77.322-78.808-120.96l-56.945 56.945 137.565 137.566c-52.495 87.21-126.82 152.596-211.627 207.494l56.03 56.03c55.52-84.184 123.3-156.118 207.823-211.3l137.24 137.242 56.946-56.945c-41.857-24.183-82.004-50.95-119.653-80.527 44.67-44.585 89.032-88.453 132.618-132.245 43.586 43.79 87.95 87.66 132.62 132.245-37.65 29.577-77.798 56.343-119.654 80.527l56.945 56.945L717.71 753.17c84.523 55.18 152.302 127.112 207.82 211.297l56.03-56.03c-84.806-54.898-159.13-120.283-211.626-207.494z"/></svg>