<svg viewBox="0 0 1024 1024" xmlns="http://www.w3.org/2000/svg"><path d="M991.993 272.003s-80.966 170.642-102.877 257.983c-28.662 114.247 4.166 200.584-37.497 311.367-72.007 129.933-76.876 150.94-339.63 150.664-96.275-.1-372.028-73.512-372.028-73.512-38.024-9.763-107.947-4.016-107.947-46.482s49.744-73.462 93.942-73.588l174.055 15.285c42.29-2.66 86.563-27.407 87.92-82.723-.704-81.845-8.81-144.716-50.348-211.2L176.228 268.06c-9.638-20.028-11.922-54.212 15.962-69.472s59.583 7.43 70.4 27.156L442.794 470.88c19.25 17.894 53.484 21.357 50.548-16.767L413.756 89.287c-4.944-25.926 8.207-57.3 38.2-57.3 39.378 0 63.598 15.035 62.82 38.828l87.492 359.957c6.852 17.518 31.097 15.184 37.622-.98L664.812 79.75c1.28-11.17 15.837-30.62 43.796-26.58 27.96 4.067 44.072 34.01 41.11 45.58l-8.08 345.876c5.67 30.67 29.765 35.137 48.54 18.02l122.453-218.98c7.43-18.373 36.57-22.188 53.435-14.91 15.71 10.24 25.926 23.945 25.926 43.245z"/></svg>