<svg viewBox="0 0 1024 1024" xmlns="http://www.w3.org/2000/svg"><path d="M858.498 129.756l-.003.008c-20.69-17.792-44.376-32.925-70.233-45.75-206.846-102.585-498.32 5.61-651.42 241.625-1.89 2.914-3.325 6.096-5.154 9.018.907-.795 1.675-1.79 2.58-2.578-80.377 113.786-70.254 272.533 31.57 374.358 108.93 108.932 283.048 113.11 397.557 13.53-9.336 13.134-19.8 26.246-31.574 38.014-113.813 113.814-298.558 113.814-412.372 0-35.566-35.568-60.115-77.333-73.452-122.424 5.843 130.993 69.82 245.12 187.502 303.482 206.848 102.584 499.608-5.613 652.707-241.626C1020.17 490.902 1003.325 254.3 858.5 129.756zm-60.815 199.788C790.33 448.832 660.373 582.45 507.318 628.19c-1.888.564-3.784.86-5.66 1.393l1.917-.964c-75.562 25.392-147.944-1.41-168.613-67.136-22.11-70.307 22.96-159.517 101.027-204.22-8.736 2.963-17.77 6.5-26.52 10.885-84.612 42.412-166.18 136.457-143.08 209.92 7.22 22.955 20.35 41.15 38.083 54.09-60.408-20.845-96.507-68.94-92.94-136.844 7.352-141.44 166.14-266.217 319.192-311.963 133.92-40.025 244.492 13.48 264.292 104.19l-.002.008c2.828 12.962 3.59 27.084 2.668 41.995zm-309.67 35.362c21.253 17.603 13.423 52.632-17.492 78.24s-73.204 32.09-94.454 14.49-13.422-52.632 17.493-78.24c30.914-25.607 73.204-32.09 94.454-14.49z"/></svg>