<svg viewBox="0 0 1024 1024" xmlns="http://www.w3.org/2000/svg"><path d="M509.57 319.693c-260.144 0-471.03 143.19-471.03 319.814s210.886 319.81 471.03 319.81S980.6 816.13 980.6 639.506c0-176.63-210.888-319.814-471.03-319.814zm.003 609.048c-217.756 0-394.282-119.854-394.282-267.7s176.527-267.704 394.283-267.704S903.855 513.19 903.855 661.04c0 147.846-176.526 267.7-394.282 267.7zM97.313 492.23c37.053-83.315 52.95-166.68 46.82-250.098 38.278 49.857 71.99 101.3 62.81 165.586zm411.59-334.71c-44.004 20.492-49.414 64.264-32.65 114.284 38.363 114.49-113.244-20.234-107.285-111.948l-45.48 193.573 361.422-11.486C573.065 332.018 470.4 229.007 508.9 157.517l.004.002zm114.75-123.98c10.178 105.858-153.115 143.64 7.622 261.57-41.937-135.49 79.78-161.616-7.62-261.57zm-428.71 378.11c62.43-75.98 88.577-164.15 82.364-292.007 54.526 44.842 60.408 147.83 56.758 223zM724.64 124.494c-54.526 44.842-59.62 147.556-55.974 222.73l307.77 251.312c-15.955-71.06-20.773-115.096-4.48-136.06 24.112-31.03 23.31-78.622-4.762-124.58-15.09 95.968-78.066 60.133-125.942-107.285-55.832 189.658-144.3-8.75-116.612-106.116zM127.542 745.696c39.625 19.227 59.02 1.23 79.04-15.592 8.934 25.75 7.395 54.01 5.516 82.358 40.496 3.21 79.077.633 83.898-59.65 40.78 60.12-32.215 94.56 19.057 127.094 29.073 18.457 72.03-53.178 77.882-112.085 7.848 63.274-16.143 130.944 66.12 165.866l-249.66-60.854-81.853-127.135zm751.254 22.155c-42.782 52.51-66.218-21.308-69.853-66.696-32.185 41.115-1.138 117.646-34.746 149.875-4.246-20.454-23.913-45.854-50.634-61.404 4.605 48.494-10.437 94.447-74.782 126.174l124.66-33.49 105.355-114.46zM673.892 904.936c-69.154 20.64-97.83-52.366-108.597-105.863-8.438 70.126-34.323 122.708-109.84 129.23l128.125 5.326 90.312-28.694z"/></svg>