<svg viewBox="0 0 1024 1024" xmlns="http://www.w3.org/2000/svg"><path d="m908.6 233.485-136.125-20.49 39.697-52.466-164.665-125.697-41.844 55.29c-68.147-40.257-138.278-57.66-190.048-52.365l.008.045c-7.397.71-14.415 2.496-21 4.144-20.678 5.194-36.75 14.677-46.886 28.08l173.173 132.137-38.623 51.055 32.544 24.84c-175.113 215.422-375.755 400.026-488.621 648.712l99.2 75.087c212.64-184.727 326.65-414.144 490.772-646.437l30.77 23.486 39.697-52.466 56.73 125.422 85.08 64.365c104.534-43.94 151.102-121.687 165.224-218.358z"/></svg>